Coordinates
version=1
nRows=5
nColumns=40
inDegrees=yes

Units are S.I. units (second, meters, Newtons, ...)
Angles are in degrees.

endheader
time	pelvis_tilt	pelvis_list	pelvis_rotation	pelvis_tx	pelvis_ty	pelvis_tz	hip_flexion_r	hip_adduction_r	hip_rotation_r	knee_angle_r	knee_angle_r_beta	ankle_angle_r	subtalar_angle_r	mtp_angle_r	hip_flexion_l	hip_adduction_l	hip_rotation_l	knee_angle_l	knee_angle_l_beta	ankle_angle_l	subtalar_angle_l	mtp_angle_l	lumbar_extension	lumbar_bending	lumbar_rotation	arm_flex_r	arm_add_r	arm_rot_r	elbow_flex_r	pro_sup_r	wrist_flex_r	wrist_dev_r	arm_flex_l	arm_add_l	arm_rot_l	elbow_flex_l	pro_sup_l	wrist_flex_l	wrist_dev_l
     29.73750000	     -5.04513342	     -4.49553911	      1.81920301	      0.68029152	      0.92042604	      0.45914041	      3.70810991	     -0.68850438	    -12.51788867	     27.79149389	     27.79149389	     16.00295238	     -5.05967836	     -7.45116611	     27.38502107	     -5.49415217	     -2.33551261	     25.02363468	     25.02363468	      6.01636011	    -14.45183944	      2.72131461	     -8.18627203	      3.98827851	      3.39742350	     32.99735023	    -15.35748311	      6.65327860	     88.56871775	     43.64857029	      0.00000000	      0.00000000	     -6.75977883	    -10.47464874	     -0.54257742	     37.74238682	     44.52016374	      0.00000000	      0.00000000
     29.75057143	     -4.96776779	     -4.27590708	      1.62503021	      0.68054131	      0.92146255	      0.45685119	      5.04105368	     -1.52764978	    -12.33935527	     31.13629182	     31.13629182	     14.97149347	     -6.14175568	     -8.26675931	     26.65374434	     -5.23479702	     -2.74082291	     24.88295483	     24.88295483	      6.55857583	    -14.26427695	      2.44152235	     -8.30421533	      3.61936291	      3.28209558	     31.56531172	    -15.33857659	      6.98754291	     87.78205549	     43.67108343	      0.00000000	      0.00000000	     -5.92013068	    -10.75738362	     -0.70863317	     38.00264931	     44.56365309	      0.00000000	      0.00000000
     29.76364286	     -5.01246234	     -4.13528450	      1.40935514	      0.68060086	      0.92219261	      0.45470020	      6.69859082	     -2.23592760	    -11.99082844	     34.69586494	     34.69586494	     13.52309509	     -7.73637865	     -9.21202026	     26.06562425	     -5.05457333	     -3.10531985	     24.71616924	     24.71616924	      7.03870478	    -14.07604021	      2.12476103	     -8.25566844	      3.33764063	      3.19689788	     30.12804284	    -15.42746469	      7.26082725	     86.62933525	     43.70946927	      0.00000000	      0.00000000	     -5.00576550	    -10.99735060	     -0.83335191	     38.14423520	     44.60471452	      0.00000000	      0.00000000
     29.77671429	     -4.99643292	     -4.00321020	      1.23270665	      0.68052557	      0.92284418	      0.45257125	      8.41102029	     -2.90252085	    -11.61046833	     38.35177243	     38.35177243	     11.73278653	     -9.61814827	    -10.09180944	     25.45572504	     -4.87292068	     -3.44625103	     24.59084625	     24.59084625	      7.48395222	    -13.87970750	      1.76456154	     -8.27836875	      3.08069626	      3.04767044	     28.65951095	    -15.44092566	      7.50922980	     85.30372893	     43.75414289	      0.00000000	      0.00000000	     -4.00966646	    -11.23693784	     -0.89995614	     38.21908297	     44.63980196	      0.00000000	      0.00000000
     29.78978571	     -4.98152105	     -3.88879317	      1.05933476	      0.68035190	      0.92336015	      0.45046230	     10.22337172	     -3.52159860	    -11.22479083	     42.04626978	     42.04626978	      9.66103579	    -11.68639725	    -10.80920196	     24.86967516	     -4.70728607	     -3.78813895	     24.48231879	     24.48231879	      7.88123310	    -13.68178039	      1.37657923	     -8.30601414	      2.89999825	      2.87466032	     27.16418710	    -15.44314768	      7.69042450	     83.78612113	     43.80792971	      0.00000000	      0.00000000	     -2.99122792	    -11.48330961	     -0.90723902	     38.24812960	     44.66896938	      0.00000000	      0.00000000
